HIERARCHY
ROOT root
{
	OFFSET	0	13.1	24.9
	CHANNELS 6  Xposition Yposition Zposition Xrotation Yrotation Zrotation
	JOINT spine_1
	{
		OFFSET	0	9.99999	0
		CHANNELS 3  Xrotation Yrotation Zrotation
		JOINT spine_2
		{
			OFFSET	0	112	-10
			CHANNELS 3  Xrotation Yrotation Zrotation
			JOINT spine_3
			{
				OFFSET	0	206.5	19.3
				CHANNELS 3  Xrotation Yrotation Zrotation
				JOINT spine_4
				{
					OFFSET	0	110.4	14.6
					CHANNELS 3  Xrotation Yrotation Zrotation
					JOINT neck_1
					{
						OFFSET	0	71.8	-50.3
						CHANNELS 3  Xrotation Yrotation Zrotation
						JOINT neck_2
						{
							OFFSET	0	86.2	-25.8
							CHANNELS 3  Xrotation Yrotation Zrotation
							JOINT head_ee
							{
								OFFSET	0	179.8	-8.7
								CHANNELS 3  Xrotation Yrotation Zrotation
								End Site
								{
									OFFSET	1	0	0
								}
							}
						}
					}
					JOINT left_clavicle
					{
						OFFSET	-43.2	22.4	-70.8
						CHANNELS 3  Xrotation Yrotation Zrotation
						JOINT left_shoulder
						{
							OFFSET	-93.9	-5.79999	48.7
							CHANNELS 3  Xrotation Yrotation Zrotation
							JOINT left_elbow
							{
								OFFSET	-291.4	-30.8	15.2
								CHANNELS 3  Xrotation Yrotation Zrotation
								JOINT left_lowarm_twist
								{
									OFFSET	-110.7	-3.89999	13.6
									CHANNELS 3  Xrotation Yrotation Zrotation
									JOINT left_hand
									{
										OFFSET	-110.7	-3.89999	13.6
										CHANNELS 3  Xrotation Yrotation Zrotation
										JOINT left_ee
										{
											OFFSET	-80.8	-5.10001	12.1
											CHANNELS 3  Xrotation Yrotation Zrotation
											End Site
											{
												OFFSET	1	0	0
											}
										}
									}
								}
							}
						}
					}
					JOINT right_clavicle
					{
						OFFSET	43.2	22.4	-70.8
						CHANNELS 3  Xrotation Yrotation Zrotation
						JOINT right_shoulder
						{
							OFFSET	93.9	-5.79999	48.7
							CHANNELS 3  Xrotation Yrotation Zrotation
							JOINT right_elbow
							{
								OFFSET	291.4	-30.8	15.2
								CHANNELS 3  Xrotation Yrotation Zrotation
								JOINT right_lowarm_twist
								{
									OFFSET	110.7	-3.89999	13.6
									CHANNELS 3  Xrotation Yrotation Zrotation
									JOINT right_hand
									{
										OFFSET	110.7	-3.89999	13.6
										CHANNELS 3  Xrotation Yrotation Zrotation
										JOINT right_ee
										{
											OFFSET	80.8	-5.10001	12.1
											CHANNELS 3  Xrotation Yrotation Zrotation
											End Site
											{
												OFFSET	1	0	0
											}
										}
									}
								}
							}
						}
					}
				}
			}
		}
	}
	JOINT left_hip
	{
		OFFSET	-82.8	-127.5	0.300001
		CHANNELS 3  Xrotation Yrotation Zrotation
		JOINT left_knee
		{
			OFFSET	-28.2	-396.7	2.2
			CHANNELS 3  Xrotation Yrotation Zrotation
			JOINT left_ankle
			{
				OFFSET	-11.7	-411.3	35.4
				CHANNELS 3  Xrotation Yrotation Zrotation
				JOINT left_toes
				{
					OFFSET	0	-60	-88.6
					CHANNELS 3  Xrotation Yrotation Zrotation
					JOINT left_foot_ee
					{
						OFFSET	-22.5	-16.5	-42.2
						CHANNELS 3  Xrotation Yrotation Zrotation
						End Site
						{
							OFFSET	1	0	0
						}
					}
				}
			}
		}
	}
	JOINT right_hip
	{
		OFFSET	82.8	-127.5	0.300001
		CHANNELS 3  Xrotation Yrotation Zrotation
		JOINT right_knee
		{
			OFFSET	28.2	-396.7	2.2
			CHANNELS 3  Xrotation Yrotation Zrotation
			JOINT right_ankle
			{
				OFFSET	11.7	-411.3	35.4
				CHANNELS 3  Xrotation Yrotation Zrotation
				JOINT right_toes
				{
					OFFSET	0	-60	-88.6
					CHANNELS 3  Xrotation Yrotation Zrotation
					JOINT right_foot_ee
					{
						OFFSET	22.5	-16.5	-42.2
						CHANNELS 3  Xrotation Yrotation Zrotation
						End Site
						{
							OFFSET	1	0	0
						}
					}
				}
			}
		}
	}
}
MOTION
Frames: 8
Frame Time: 0.02
2980.3 662.622 -1465.66 9.26717 74.3335 -13.5685 -2.00692 0.971533 1.94544 -2.00521 0.845796 2.00329 -1.97264 0.332443 2.1489 -1.97846 0.667577 2.06948 -12.8177 7.65598 4.11755 -12.8594 11.9671 6.19377 -0.0 0.0 -0.0 2.22004 23.9584 5.77901 -24.3871 -9.15936 71.6924 0.215564 -6.09534 0.0114772 -43.8351 -3.36795 4.3223 0.813116 1.81177 6.17614 -0.0 0.0 -0.0 13.7904 27.3397 -27.3423 15.7205 18.9305 -55.602 2.23973 47.9649 -0.99647 70.5818 2.80096 7.99237 2.24962 -19.9737 -22.035 0.0 0.0 0.0 26.5422 2.01269 -4.47193 -2.84071 0.106494 0.422906 -5.13349 7.76461 0.759497 -20.7129 0.0 0.0 -0.0 0.0 -0.0 -10.7032 -18.1654 17.7321 -19.3551 -0.302755 -2.94066 39.5951 18.7467 5.26512 12.7001 -0.0 -0.0 0.0 0.0 0.0 
2959.89 666.711 -1459.9 7.72864 74.0292 -11.8946 -1.88956 0.952545 1.86148 -1.88802 0.832187 1.9183 -1.85746 0.344077 2.06247 -1.86278 0.665424 1.9823 -11.9605 9.75817 3.848 -12.0585 16.037 6.45436 -0.0 0.0 -0.0 2.829 24.0696 6.61177 -24.6769 -9.13207 70.75 0.300611 -8.47007 0.0222603 -43.5315 -3.33432 4.3026 1.26122 0.129097 8.50703 -0.0 0.0 -0.0 13.9601 27.374 -27.7327 14.803 19.9394 -55.2175 2.10731 46.2248 -0.899465 70.2483 2.76617 7.96745 1.82397 -19.9888 -19.2997 0.0 0.0 0.0 27.4019 1.96194 -4.3386 -6.51188 0.212821 0.976186 -1.80947 9.30308 0.265924 -20.8496 0.0 0.0 -0.0 0.0 -0.0 -11.1203 -20.5941 18.0668 -15.0159 -0.3217 -2.27532 38.377 18.4373 5.14108 13.514 -0.0 -0.0 0.0 0.0 0.0 
2933.88 668.184 -1452.11 5.26471 74.2219 -9.29002 -1.79708 0.82412 1.67182 -1.79581 0.716084 1.72086 -1.7722 0.281782 1.84244 -1.77648 0.56918 1.77486 -11.5414 11.9891 4.0979 -11.6983 20.0595 7.27392 -0.0 0.0 -0.0 3.10491 23.7237 6.98177 -24.3148 -9.46287 70.5738 0.359437 -10.0962 0.0317508 -42.8204 -3.25598 4.25578 1.62373 -0.895691 10.5517 -0.0 0.0 -0.0 13.9593 27.3448 -27.7349 13.0417 21.7015 -55.3801 2.0365 45.2464 -0.848754 68.9095 2.62801 7.86538 1.49804 -20.49 -17.3936 0.0 0.0 0.0 28.3454 1.88152 -4.09928 -9.49487 0.272969 1.42993 -0.613015 11.2757 0.089949 -20.9293 0.0 0.0 -0.0 0.0 -0.0 -11.3423 -22.2797 19.0106 -13.4381 -0.316092 -2.03332 37.2726 16.8405 4.97796 13.3401 -0.0 -0.0 0.0 0.0 0.0 
2901.85 667.721 -1449.18 4.82224 74.4687 -8.42654 -1.79344 0.602888 1.65765 -1.79205 0.496201 1.69264 -1.77549 0.0749042 1.76226 -1.77965 0.352238 1.72833 -9.19631 15.0412 3.34518 -9.34343 25.9783 6.90898 -0.0 0.0 -0.0 3.06367 23.7576 6.92576 -24.0405 -10.032 70.2383 0.466936 -13.024 0.0533002 -41.8395 -3.14889 4.18962 2.05186 -2.32131 12.9053 -0.0 0.0 -0.0 13.4148 26.7842 -26.5416 10.8849 22.5292 -56.4588 2.06553 45.6516 -0.869438 68.0668 2.54228 7.7995 1.69303 -21.0146 -18.7731 0.0 0.0 0.0 27.8069 2.33617 -4.05242 -15.9681 0.321859 2.42141 9.95251 12.218 -1.41893 -19.5596 0.0 0.0 -0.0 0.0 -0.0 -11.6584 -22.8784 19.8176 -15.483 -0.322082 -2.347 34.9084 15.6159 4.70563 13.9639 -0.0 -0.0 0.0 0.0 0.0 
2881.71 672.496 -1443.76 5.84706 74.4136 -9.43792 -1.77546 0.424092 1.60779 -1.77408 0.320939 1.63151 -1.7633 -0.0802531 1.66083 -1.76711 0.183014 1.65267 -8.83563 16.5766 4.18624 -8.96998 28.2356 8.02284 -0.0 0.0 -0.0 3.17005 21.6635 7.03405 -20.9911 -10.7643 70.3094 0.508331 -14.1341 0.0630195 -41.677 -3.13125 4.17848 2.13666 -2.53787 13.4016 -0.0 0.0 -0.0 13.0566 26.2636 -25.7765 8.53317 22.5621 -57.1016 2.09474 46.0536 -0.890404 67.0927 2.4444 7.72178 1.51103 -21.9288 -17.9078 0.0 0.0 0.0 26.954 2.64301 -3.65676 -17.6117 0.316422 2.67353 7.39257 13.848 -1.06535 -19.6301 0.0 0.0 -0.0 0.0 -0.0 -11.0994 -24.5079 21.0707 -16.0767 -0.321723 -2.43808 34.0424 12.3241 4.52461 14.3777 -0.0 -0.0 0.0 0.0 0.0 
2855.69 673.732 -1442.23 7.35523 74.8264 -10.9523 -1.65358 0.329516 1.7347 -1.65194 0.218483 1.75214 -1.64355 -0.20507 1.75376 -1.64784 0.0744329 1.76414 -7.43711 16.5865 3.27286 -7.46674 28.6219 6.78326 -0.0 0.0 -0.0 3.03393 22.6061 6.86077 -22.1844 -12.0119 69.5247 0.496161 -13.8088 0.0600812 -45.3641 -3.53884 4.41875 2.20736 0.565305 15.1424 -0.0 0.0 -0.0 13.5315 27.1569 -26.7646 7.1041 22.6516 -57.2757 1.85107 42.5156 -0.720185 66.2147 2.35734 7.65034 1.42138 -23.1174 -17.7075 0.0 0.0 0.0 25.0894 3.60872 -2.82093 -18.5905 0.309749 2.82355 14.0439 11.9033 -1.97223 -19.5654 0.0 0.0 -0.0 0.0 -0.0 -11.7429 -21.1906 21.3976 -21.067 -0.28143 -3.20246 29.9277 9.10171 4.02102 14.2993 -0.0 -0.0 0.0 0.0 0.0 
2833.14 678.557 -1439.65 10.1098 74.3822 -13.6109 -1.82529 0.352274 1.95071 -1.8232 0.227456 1.96916 -1.81315 -0.253879 1.96593 -1.81854 0.0597259 1.98135 -7.23673 17.1514 3.12682 -7.25379 29.7465 6.71332 -0.0 0.0 -0.0 3.3865 22.5647 7.35649 -21.6517 -11.4576 68.1044 0.592239 -16.3507 0.0850835 -44.7764 -3.47285 4.38222 2.19253 -0.892055 14.4575 -0.0 0.0 -0.0 13.3686 26.3471 -26.4889 5.96416 23.019 -58.266 1.7379 40.7218 -0.645012 65.6302 2.29999 7.60203 1.58761 -22.6031 -18.5788 0.0 0.0 0.0 23.6496 3.76057 -2.4677 -21.8155 0.26965 3.31672 18.8793 12.4042 -2.60143 -19.4385 0.0 0.0 -0.0 0.0 -0.0 -11.1656 -21.0844 22.4694 -24.5896 -0.212999 -3.73859 26.5783 4.58146 3.5778 15.854 -0.0 -0.0 0.0 0.0 0.0 
2811.32 684.508 -1426.69 11.4669 74.1021 -15.1657 -1.98172 0.227344 1.95683 -1.9796 0.10239 1.96732 -1.97393 -0.380311 1.93294 -1.97914 -0.0703284 1.96873 -9.26141 17.0178 4.02122 -9.45553 29.2643 8.08923 -0.0 0.0 -0.0 4.64965 22.9089 9.13706 -19.2846 -11.5372 66.5778 0.579522 -16.0178 0.0815389 -45.4405 -3.54744 4.42345 2.06026 1.14558 14.3561 -0.0 0.0 -0.0 13.2283 26.4176 -26.1552 4.33413 22.1092 -58.1309 1.59023 38.2265 -0.551108 64.3318 2.17439 7.49268 1.67173 -23.4804 -19.3467 0.0 0.0 0.0 22.2783 4.89083 -0.848363 -22.7771 0.252329 3.46325 21.4768 12.6455 -2.92629 -21.2 0.0 0.0 -0.0 0.0 -0.0 -10.743 -16.4716 22.9284 -27.1729 -0.141927 -4.12864 23.2472 -2.19203 3.13519 16.8109 -0.0 -0.0 0.0 0.0 0.0 
